<svg width="7" height="12" viewBox="0 0 7 12" fill="none" xmlns="http://www.w3.org/2000/svg">
<path fill-rule="evenodd" clip-rule="evenodd" d="M6.38626 0.0768329C6.50804 0.127553 6.61857 0.201875 6.71147 0.295513C6.80514 0.388386 6.87949 0.49888 6.93022 0.620622C6.98096 0.742363 7.00708 0.872943 7.00708 1.00483C7.00708 1.13671 6.98096 1.26729 6.93022 1.38903C6.87949 1.51077 6.80514 1.62127 6.71147 1.71414L2.41424 6L6.71147 10.2859C6.80514 10.3787 6.87949 10.4892 6.93022 10.611C6.98096 10.7327 7.00708 10.8633 7.00708 10.9952C7.00708 11.1271 6.98096 11.2576 6.93022 11.3794C6.87949 11.5011 6.80514 11.6116 6.71147 11.7045C6.61857 11.7981 6.50804 11.8724 6.38626 11.9232C6.26448 11.9739 6.13386 12 6.00193 12C5.87 12 5.73938 11.9739 5.6176 11.9232C5.49582 11.8724 5.38529 11.7981 5.29239 11.7045L0.295608 6.70931C0.20194 6.61644 0.127593 6.50595 0.0768574 6.38421C0.0261214 6.26246 0 6.13188 0 6C0 5.86812 0.0261214 5.73754 0.0768574 5.61579C0.127593 5.49405 0.20194 5.38356 0.295608 5.29069L5.29239 0.295513C5.38529 0.201875 5.49582 0.127553 5.6176 0.0768329C5.73938 0.0261132 5.87 0 6.00193 0C6.13386 0 6.26448 0.0261132 6.38626 0.0768329Z" fill="#fafafa"/>
</svg>
